<svg fill="#000000" xmlns="http://www.w3.org/2000/svg"  viewBox="0 0 50 50" width="100px" height="100px"><path d="M 24.8125 6.53125 C 20.890625 11.007813 18.839844 18.421875 19.09375 25.75 L 30.5 25.75 C 30.851563 18.273438 28.796875 10.890625 24.8125 6.53125 Z M 0 16.03125 C 0.386719 19.785156 1.167969 22.820313 2.4375 25.75 L 16.3125 25.75 C 12.652344 20.25 7.136719 17.300781 0 16.03125 Z M 50 16.0625 C 42.746094 17.164063 37.148438 20.265625 33.25 25.75 L 47.375 25.75 C 48.703125 22.859375 49.546875 19.730469 50 16.0625 Z M 3.5 28.5625 C 3.878906 29.386719 4.5 30.417969 5.03125 31.15625 L 44.6875 31.125 C 45.265625 30.316406 45.785156 29.484375 46.1875 28.5625 Z M 6.875 33.78125 C 7.695313 34.867188 8.382813 35.308594 9.40625 36.125 L 40.125 36.125 C 40.984375 35.453125 41.886719 34.660156 42.6875 33.78125 Z M 12.6875 38.28125 C 15.308594 39.902344 18.382813 40.964844 21.875 41.6875 L 21.46875 38.28125 Z M 22.3125 38.28125 C 22.988281 39.6875 23.859375 40.867188 24.84375 42 C 25.8125 40.847656 26.441406 39.667969 27.125 38.28125 Z M 28.15625 38.28125 L 27.625 41.5 C 31.132813 40.855469 34.222656 39.835938 36.90625 38.28125 Z"/></svg>