<svg fill="#000000" xmlns="http://www.w3.org/2000/svg"  viewBox="0 0 50 50" width="100px" height="100px"><path d="M8.826 16H9v10.761c0 1.404-.976 2.237-2.5 2.237-1.534 0-2.465-1.096-2.465-2.276L4 25H0v1.761C0 28.78.718 33 6.5 33c5.783 0 6.5-4.482 6.5-6.321V16H8.826zM19.5 30c-1.263 0-1.5-1-1.5-2h7c0-5-2-7-5.5-7S14 23 14 26.813C14 31 15.817 33 19.522 33 22.769 33.034 25 30.617 25 29h-4C21 29 20.758 30 19.5 30zM19.5 24c1.029 0 1.5 1 1.5 2h-3C18 25 18.482 24 19.5 24zM31.5 30c-1.263 0-1.5-1-1.5-2h7c0-5-2-7-5.5-7S26 23 26 26.813C26 31 27.817 33 31.522 33 34.769 33.034 37 30.617 37 29h-4C33 29 32.758 30 31.5 30zM31.5 24c1.029 0 1.5 1 1.5 2h-3C30 25 30.482 24 31.5 24zM45.194 20.594c-1.884 0-2.591.875-2.843 1.181-.291.358-.22.557-.351.843V21h-4l.072 15v0H42v-4.685c.153.206.115.31.394.531.436.336 1.179.916 2.843.916 3.018 0 4.762-2.625 4.762-6.213C50 21.906 47.072 20.594 45.194 20.594zM44.058 30.086c-1.836 0-2.101-1.175-2.058-3.407.048-2.234.706-3.148 1.882-3.148 1.923 0 2.118 1.484 2.118 3.018C46 28.08 45.891 30.086 44.058 30.086z"/></svg>