<svg fill="#000000" xmlns="http://www.w3.org/2000/svg"  viewBox="0 0 50 50" width="100px" height="100px"><path d="M 40 2 L 10 2 C 9.445313 2 9 2.449219 9 3 L 9 47 C 9 47.550781 9.445313 48 10 48 L 40 48 C 40.554688 48 41 47.550781 41 47 L 41 3 C 41 2.449219 40.554688 2 40 2 Z M 23.136719 10.09375 C 24.375 10.0625 25.625 10.0625 26.867188 10.09375 C 30.074219 10.175781 33.285156 10.515625 36.308594 11.539063 L 35.632813 12.53125 C 33.074219 11.632813 30.035156 11.199219 26.828125 11.105469 C 25.617188 11.066406 24.382813 11.066406 23.171875 11.105469 C 19.964844 11.199219 16.929688 11.632813 14.367188 12.53125 L 13.695313 11.539063 C 16.71875 10.515625 19.925781 10.175781 23.136719 10.09375 Z M 17.085938 37.078125 C 17.019531 37.359375 16.792969 37.59375 16.484375 37.714844 L 15.546875 37.714844 L 15.492188 37.738281 L 15.492188 40.269531 L 14.90625 40.269531 L 14.90625 37.738281 L 14.859375 37.714844 L 13.921875 37.714844 C 13.613281 37.59375 13.386719 37.359375 13.320313 37.078125 L 13.320313 37.074219 L 17.085938 37.074219 Z M 21.339844 40.265625 L 19.113281 40.265625 C 18.800781 40.140625 18.570313 39.90625 18.507813 39.625 L 21.941406 39.625 C 21.878906 39.90625 21.652344 40.140625 21.339844 40.265625 Z M 21.339844 38.964844 L 19.113281 38.964844 C 18.800781 38.84375 18.570313 38.605469 18.507813 38.328125 L 21.941406 38.328125 C 21.878906 38.605469 21.652344 38.84375 21.339844 38.964844 Z M 21.339844 37.726563 L 19.113281 37.726563 C 18.800781 37.601563 18.570313 37.367188 18.507813 37.085938 L 21.941406 37.085938 C 21.878906 37.367188 21.652344 37.601563 21.339844 37.726563 Z M 26.867188 40.269531 L 23.617188 40.269531 L 23.628906 40.246094 C 23.691406 39.964844 23.917969 39.75 24.222656 39.625 L 26.289063 39.625 L 26.289063 38.964844 L 23.617188 38.964844 L 23.617188 37.078125 L 26.851563 37.078125 C 26.785156 37.359375 26.558594 37.609375 26.25 37.703125 L 24.191406 37.703125 L 24.191406 38.335938 L 26.867188 38.335938 Z M 31.160156 40.246094 L 28.523438 40.238281 L 28.523438 37.078125 L 29.101563 37.074219 L 29.097656 39.617188 L 31.667969 39.617188 C 31.605469 39.882813 31.449219 40.113281 31.160156 40.246094 Z M 28.453125 13.632813 L 25 32.164063 L 21.546875 13.632813 C 19.699219 13.632813 17.78125 13.917969 17.730469 15.277344 C 16.863281 15.058594 15.28125 14.074219 14.917969 13.382813 C 17.554688 12.316406 21.902344 12.175781 23.789063 12.246094 L 25 13.800781 L 26.210938 12.246094 C 28.097656 12.175781 32.449219 12.316406 35.085938 13.382813 C 34.71875 14.074219 33.136719 15.058594 32.265625 15.277344 C 32.21875 13.917969 30.296875 13.632813 28.453125 13.632813 Z M 36.601563 40.257813 L 36.027344 40.257813 L 36.027344 38.96875 L 33.933594 38.96875 L 33.933594 40.257813 L 33.355469 40.257813 L 33.355469 38.320313 L 36.601563 38.324219 Z M 36.085938 37.710938 L 33.859375 37.710938 C 33.546875 37.585938 33.304688 37.363281 33.246094 37.082031 L 36.679688 37.082031 C 36.617188 37.363281 36.398438 37.585938 36.085938 37.710938 Z"/></svg>